<?xml version="1.0" encoding="UTF-8" standalone="no"?><!DOCTYPE svg PUBLIC "-//W3C//DTD SVG 1.1//EN" "http://www.w3.org/Graphics/SVG/1.1/DTD/svg11.dtd"><svg width="100%" height="100%" viewBox="0 0 2134 2134" version="1.1" xmlns="http://www.w3.org/2000/svg" xmlns:xlink="http://www.w3.org/1999/xlink" xml:space="preserve" xmlns:serif="http://www.serif.com/" style="fill-rule:evenodd;clip-rule:evenodd;stroke-linejoin:round;stroke-miterlimit:2;"><rect id="Artboard1" x="0" y="0" width="2133.33" height="2133.33" style="fill:none;"/><g id="Artboard11" serif:id="Artboard1"><g id="logo"><path d="M392.309,765.699c-100.162,-61.577 -131.487,-192.889 -69.91,-293.051c61.578,-100.161 192.89,-131.487 293.051,-69.909l17.274,10.619l21.238,-34.546l-17.273,-10.62c-119.229,-73.299 -275.537,-36.011 -348.836,83.218c-73.3,119.228 -36.011,275.536 83.217,348.836l17.274,10.619l21.238,-34.546l-17.273,-10.62Z" style="fill:#0bc86c;"/><path d="M1738.88,765.699c100.162,-61.577 131.487,-192.889 69.91,-293.051c-61.578,-100.161 -192.889,-131.487 -293.051,-69.909l-17.273,10.619l-21.239,-34.546l17.273,-10.62c119.229,-73.299 275.537,-36.011 348.836,83.218c73.3,119.228 36.011,275.536 -83.217,348.836l-17.273,10.619l-21.239,-34.546l17.273,-10.62Z" style="fill:#0bc86c;"/><circle cx="697.06" cy="732.244" r="85.952"/><circle cx="1467.37" cy="732.244" r="85.952"/><ellipse cx="1067.74" cy="1030.12" rx="162.793" ry="294.272"/><g><path d="M373.334,1511.94l-67.877,-0l-89.891,178.529l-1.224,-0l0,-178.529l-64.743,-0l0,427.977l64.743,-0l0,-132.061l28.13,-55.025l63.596,187.086l69.1,-0l-89.891,-258.008l88.057,-169.969Z" style="fill:#0bc86c;fill-rule:nonzero;"/><rect x="394.201" y="1695.39" width="130.174" height="62.297" style="fill-rule:nonzero;"/><path d="M765.92,1511.94l-182.152,-0l0,427.977l182.152,-0l0,-59.851l-117.409,-0l0,-127.27l94.784,0l-0,-59.851l-94.784,0l0,-121.154l117.409,-0l0,-59.851Z" style="fill-rule:nonzero;"/><path d="M1025.81,1511.94l-64.798,-0l-47.681,326.486l-1.223,-0l-48.293,-326.486l-66.02,-0l72.133,427.977l83.748,-0l72.134,-427.977Z" style="fill-rule:nonzero;"/><path d="M1254.51,1511.94l-182.152,-0l-0,427.977l182.152,-0l-0,-59.851l-117.409,-0l-0,-127.27l94.783,0l0,-59.851l-94.783,0l-0,-121.154l117.409,-0l-0,-59.851Z" style="fill-rule:nonzero;"/><path d="M1520.52,1511.94l-61.074,-0l-0,254.953l-1.225,-0l-76.504,-254.953l-72.09,-0l-0,427.977l61.074,-0l-0,-283.687l1.224,0l85.072,283.687l63.523,-0l-0,-427.977Z" style="fill-rule:nonzero;"/><path d="M1765.12,1511.94l-202.944,-0l0,61.074l69.101,-0l-0,366.903l64.743,-0l-0,-366.903l69.1,-0l-0,-61.074Z" style="fill-rule:nonzero;"/><path d="M1881.95,1505.82c-61.763,-0 -96.578,34.811 -96.578,95.937l-0,9.174c-0,50.156 20.156,85.632 79.436,135.788c43.463,36.699 56.318,58.107 56.318,85.02l-0,14.068c-0,26.913 -12.243,40.369 -36.729,40.369c-24.485,-0 -36.728,-13.456 -36.728,-40.369l-0,-30.583l-62.297,6.117l-0,28.747c-0,61.128 36.035,95.939 100.25,95.939c64.211,-0 100.247,-34.811 100.247,-95.939l0,-21.408c0,-51.379 -21.988,-86.855 -81.271,-137.01c-43.463,-36.699 -54.483,-58.107 -54.483,-83.185l-0,-5.505c-0,-24.466 11.632,-37.309 33.06,-37.309c21.427,-0 33.059,12.843 33.059,37.309l-0,15.903l62.297,-6.117l0,-11.009c0,-61.126 -34.813,-95.937 -96.581,-95.937Z" style="fill-rule:nonzero;"/></g><path d="M686.019,293.752c253.9,-138.983 507.8,-144.322 761.675,-1.549l4.651,-2.859c163.971,-100.806 378.936,-49.525 479.742,114.446c100.806,163.971 49.524,378.936 -114.446,479.742l-17.274,10.619l-21.238,-34.546l17.273,-10.62c144.904,-89.084 190.223,-279.053 101.138,-423.957c-89.084,-144.904 -279.052,-190.222 -423.956,-101.138l-23.276,16.464l-17.614,-10.043c-243.092,-138.593 -486.183,-133.639 -729.274,0.149l-17.764,9.777l-28.045,-16.347c-144.904,-89.084 -334.873,-43.766 -423.957,101.138c-89.084,144.904 -43.766,334.873 101.138,423.957l17.273,10.62l-21.238,34.546l-17.274,-10.619c-163.97,-100.806 -215.252,-315.771 -114.446,-479.742c100.806,-163.971 315.771,-215.252 479.742,-114.446l7.17,4.408Z" style="fill:#0e0606;"/></g></g></svg>